# xmcd
#
# Track frame offsets: 
#        150
#        14162
#        25737
#        38500
#        53522
#        66250
#        79155
#        92182
#        104292
#        117765
#        131932
#        144377
#        156892
#        170492
#        183000
#        196525
#
# Disc length: 2783 seconds
#
# Revision: 3
# Processed by: cddbd v1.5.2PL0 Copyright (c) Steve Scherf et al.
# Submitted via: ExactAudioCopy v1.0b4
#
DISCID=cc0add10
DTITLE=Orlando Dias - Orlando Dias - Meus Momentos (1994)
DYEAR=1994
DGENRE=Other
TTITLE0=01. Tenho Ciúme De Tudo
TTITLE1=02. Minha Serás Eternamente
TTITLE2=03. Tu Hás De Pensar Em Mim
TTITLE3=04. Peroda-me Pelo Bem Que Te Quero
TTITLE4=05. Sinfonia Da Mata
TTITLE5=06. Mentiste-me
TTITLE6=07. Minha Serenata
TTITLE7=08. Nunca Mais
TTITLE8=09. Espera Um Pouco Mais
TTITLE9=10. Por Uma Noite Ainda
TTITLE10=11. Que Me Importa
TTITLE11=12. Último Apelo
TTITLE12=13. Ninguém Gostou De Alguém Como Eu Gosto De Ti
TTITLE13=14. Preciso De Ti
TTITLE14=15. Nas Tuas Horas De Tristezas
TTITLE15=16. Ainda Te Espero
EXTD=
EXTT0=
EXTT1=
EXTT2=
EXTT3=
EXTT4=
EXTT5=
EXTT6=
EXTT7=
EXTT8=
EXTT9=
EXTT10=
EXTT11=
EXTT12=
EXTT13=
EXTT14=
EXTT15=
PLAYORDER=
